# xmcd
#
# Track frame offsets: 
#        150
#        11737
#        27562
#        38162
#        59262
#        74050
#        90587
#        104937
#        119187
#        130400
#        148087
#        158987
#        171275
#        179525
#        192350
#        199612
#        206550
#        215450
#        224637
#        235437
#        251775
#        257025
#        260337
#        265537
#        268600
#        272500
#
# Disc length: 3755 seconds
#
# Revision: 0
# Processed by: cddbd v1.5.2PL0 Copyright (c) Steve Scherf et al.
# Submitted via: ExactAudioCopyFreeDBPlugin 1.0
#
DISCID=ab0ea91a
DTITLE=多位藝術家 - 兒歌天地 3
DYEAR=1900
DGENRE=pop
TTITLE0=小太陽兒童合唱團 - 雪姑七友
TTITLE1=陳松齡 - 鳥卒卒
TTITLE2=草蜢 - 伙頭仔昆布
TTITLE3=湯寶如 - 寶貝甜心
TTITLE4=鄭嘉穎 - 忍者亂太郎
TTITLE5=劉美君 - 甜甜小公主
TTITLE6=小太陽兒童合唱團 - 小魚仙
TTITLE7=吳婉芳 - 四驅小子
TTITLE8=黎瑞恩 - 超人小子
TTITLE9=陳松齡 - 夏季 Sha La La
TTITLE10=小太陽兒童合唱團 - 小飛俠
TTITLE11=路雲娜 梅艷芳 - 千年女王
TTITLE12=小太陽兒童合唱團 - 木偶奇遇記
TTITLE13=小太陽兒童合唱團 - 小甜甜
TTITLE14=小太陽兒童合唱團 - 香蕉船
TTITLE15=小太陽兒童合唱團 - 仙巴歷險記
TTITLE16=小太陽兒童合唱團 - 星仔走天涯
TTITLE17=小太陽兒童合唱團 - 醒目仔
TTITLE18=何國禧 何君諾 - 親親爹地
TTITLE19=小太陽兒童合唱團 - Do-Re-Mi
TTITLE20=小太陽兒童合唱團 - 祝福你
TTITLE21=小太陽兒童合唱團 - 心想事成
TTITLE22=小太陽兒童合唱團 - 同唱一曲春光好
TTITLE23=小太陽兒童合唱團 - 願你
TTITLE24=小太陽兒童合唱團 - 學野俾心機
TTITLE25=小太陽兒童合唱團 - 開心常歡笑
EXTD=
EXTT0=
EXTT1=
EXTT2=
EXTT3=
EXTT4=
EXTT5=
EXTT6=
EXTT7=
EXTT8=
EXTT9=
EXTT10=
EXTT11=
EXTT12=
EXTT13=
EXTT14=
EXTT15=
EXTT16=
EXTT17=
EXTT18=
EXTT19=
EXTT20=
EXTT21=
EXTT22=
EXTT23=
EXTT24=
EXTT25=
PLAYORDER=
